<svg width="24" height="24" viewBox="0 0 24 24" fill="none" xmlns="http://www.w3.org/2000/svg">
<path d="M10.68 2.10425L4.07 5.90425L4.068 5.90625C3.6667 6.13899 3.33366 6.4732 3.10233 6.87532C2.87099 7.27744 2.74948 7.73333 2.75 8.19725V15.8002C2.74921 16.2644 2.87059 16.7205 3.10194 17.1228C3.3333 17.5251 3.66648 17.8595 4.068 18.0922L4.071 18.0942L10.679 21.8932H10.681C11.0819 22.1258 11.5371 22.2482 12.0005 22.2482C12.4639 22.2482 12.9191 22.1258 13.32 21.8932H13.321L19.929 18.0932H19.932C20.3338 17.8602 20.6671 17.5256 20.8984 17.1229C21.1298 16.7202 21.2511 16.2637 21.25 15.7992V8.19925C21.2507 7.73516 21.1293 7.27906 20.8979 6.87675C20.6666 6.47444 20.3335 6.14008 19.932 5.90725L13.322 2.10725L13.32 2.10525C12.919 1.87256 12.4636 1.75 12 1.75C11.5364 1.75 11.081 1.87156 10.68 2.10425ZM15.773 8.69225C15.9341 8.80884 16.0423 8.98463 16.0738 9.18097C16.1053 9.3773 16.0575 9.57811 15.941 9.73925L12.344 14.7202C12.1899 14.9337 11.9897 15.1096 11.7582 15.2349C11.5266 15.3603 11.2698 15.4317 11.0069 15.444C10.7439 15.4563 10.4816 15.4092 10.2394 15.306C9.99715 15.2028 9.78134 15.0464 9.608 14.8482L8.102 13.1282C8.03707 13.0541 7.98738 12.9678 7.95577 12.8744C7.92417 12.781 7.91128 12.6823 7.91782 12.5839C7.92437 12.4855 7.95023 12.3894 7.99393 12.301C8.03763 12.2126 8.09831 12.1337 8.1725 12.0687C8.2467 12.0038 8.33296 11.9541 8.42636 11.9225C8.51976 11.8909 8.61847 11.878 8.71686 11.8846C8.81524 11.8911 8.91137 11.917 8.99976 11.9607C9.08815 12.0044 9.16707 12.0651 9.232 12.1392L10.737 13.8602C10.7618 13.8884 10.7925 13.9106 10.827 13.9253C10.8615 13.94 10.8989 13.9467 10.9363 13.945C10.9738 13.9432 11.0104 13.9331 11.0434 13.9153C11.0764 13.8975 11.105 13.8726 11.127 13.8422L14.725 8.86125C14.7827 8.78127 14.8555 8.71345 14.9394 8.66166C15.0233 8.60988 15.1166 8.57514 15.214 8.55945C15.3113 8.54375 15.4108 8.5474 15.5067 8.57019C15.6026 8.59297 15.6931 8.63445 15.773 8.69225Z" fill="#009966"/>
</svg>
