<svg width="24" height="24" viewBox="0 0 24 24" fill="none" xmlns="http://www.w3.org/2000/svg">
<path d="M12 0.25C18.4893 0.25 23.75 5.51065 23.75 12C23.75 18.4893 18.4893 23.75 12 23.75C5.51065 23.75 0.25 18.4893 0.25 12C0.25 5.51065 5.51065 0.25 12 0.25Z" fill="#F8FAFC"/>
<path d="M12 0.25C18.4893 0.25 23.75 5.51065 23.75 12C23.75 18.4893 18.4893 23.75 12 23.75C5.51065 23.75 0.25 18.4893 0.25 12C0.25 5.51065 5.51065 0.25 12 0.25Z" stroke="#E2E8F0" stroke-width="0.5"/>
<path d="M9.35427 8.64817C9.25997 8.55709 9.13367 8.50669 9.00257 8.50783C8.87147 8.50897 8.74607 8.56156 8.65336 8.65426C8.56066 8.74696 8.50808 8.87237 8.50694 9.00347C8.5058 9.13457 8.55619 9.26087 8.64727 9.35517L11.2938 12.0017L8.64727 14.6482C8.59952 14.6943 8.56143 14.7495 8.53522 14.8105C8.50902 14.8715 8.49522 14.9371 8.49465 15.0035C8.49407 15.0699 8.50672 15.1357 8.53186 15.1971C8.557 15.2586 8.59413 15.3144 8.64108 15.3614C8.68802 15.4083 8.74385 15.4454 8.8053 15.4706C8.86674 15.4957 8.93258 15.5084 8.99897 15.5078C9.06536 15.5072 9.13097 15.4934 9.19198 15.4672C9.25298 15.441 9.30815 15.4029 9.35427 15.3552L12.0008 12.7087L14.6473 15.3552C14.7416 15.4462 14.8679 15.4966 14.999 15.4955C15.1301 15.4944 15.2555 15.4418 15.3482 15.3491C15.4409 15.2564 15.4935 15.131 15.4946 14.9999C15.4957 14.8688 15.4454 14.7425 15.3543 14.6482L12.7078 12.0017L15.3543 9.35517C15.4454 9.26087 15.4957 9.13457 15.4946 9.00347C15.4935 8.87237 15.4409 8.74696 15.3482 8.65426C15.2555 8.56156 15.1301 8.50897 14.999 8.50783C14.8679 8.50669 14.7416 8.55709 14.6473 8.64817L12.0008 11.2947L9.35427 8.64817Z" fill="#020618"/>
</svg>
